<?xml version="1.0" encoding="utf-8"?>
<!-- Generator: Adobe Illustrator 22.0.1, SVG Export Plug-In . SVG Version: 6.00 Build 0)  -->
<svg version="1.1" id="Layer_1" xmlns="http://www.w3.org/2000/svg" xmlns:xlink="http://www.w3.org/1999/xlink" x="0px" y="0px"
	 viewBox="0 0 136 29.4" style="enable-background:new 0 0 136 29.4;" xml:space="preserve">
<style type="text/css">
	.st0{fill-rule:evenodd;clip-rule:evenodd;fill:#034EA2;}
	.st1{fill:#034EA2;}
</style>
<g>
	<polygon class="st0" points="130.1,28.3 123.1,28.3 123.1,7.1 117.2,7.1 117.2,1.1 136,1.1 136,7.1 130.1,7.1 130.1,28.3 	"/>
	<polygon class="st0" points="86.3,1.1 93.4,1.1 106.3,17.7 106.3,1.1 113.5,1.1 113.5,28.3 106.4,28.3 93.4,11.6 93.4,28.3 
		86.3,28.3 86.3,1.1 	"/>
	<polygon class="st0" points="74.1,7.1 74.1,11.6 81.2,11.6 81.2,17.6 74.1,17.6 74.1,22.3 82.5,22.3 82.5,28.3 67,28.3 67,1.1 
		82.5,1.1 82.5,7.1 74.1,7.1 	"/>
	<polygon class="st0" points="63.3,28.3 56.2,28.3 56.2,1.1 63.3,1.1 63.3,28.3 	"/>
	<path class="st1" d="M14.7,0C6.6,0,0,6.6,0,14.7c0,0.2,0,0.4,0,0.5l18.3-9.7v0v0v0L0.2,17c0.1,0.4,0.2,0.9,0.3,1.3L19.8,8L1,19.9
		c0.1,0.3,0.3,0.7,0.4,1L23.6,9.2h0h0l0,0L2.3,22.6c0.2,0.3,0.4,0.6,0.6,0.9L22.7,13L4,24.8c0.3,0.3,0.6,0.6,0.9,0.9l19.2-10.2h0
		l0,0v0l0,0L6.3,26.8c2.4,1.7,5.3,2.6,8.4,2.6c8.1,0,14.7-6.6,14.7-14.7C29.4,6.6,22.8,0,14.7,0z"/>
	<path class="st1" d="M46.5,17.2c3.5-0.9,6-4.1,6-7.9c0-4.5-3.7-8.2-8.2-8.2h-1.4H42h-9.6v27.2h7.2V18.2l6.7,10.1h8.2L46.5,17.2z
		 M41.8,13.3C41.8,13.3,41.8,13.3,41.8,13.3l-0.9,0c-0.5,0-1,0-1.5,0v-1V7.5v-1v0h0.2c0.2,0,0.5,0,0.8,0h1.3c1.9,0,3.4,1.5,3.4,3.4
		C45.3,11.8,43.7,13.3,41.8,13.3z"/>
</g>
</svg>
